<svg xmlns="http://www.w3.org/2000/svg" xmlns:osb="http://www.openswatchbook.org/uri/2009/osb" xmlns:svg="http://www.w3.org/2000/svg" id="svg7384" width="16" height="16" version="1.1"><metadata id="metadata90"/><title id="title9167">Gnome Symbolic Icon Theme</title><defs id="defs7386"><linearGradient id="linearGradient7212" osb:paint="solid"><stop id="stop7214" offset="0" style="stop-color:#000;stop-opacity:1"/></linearGradient></defs><g id="layer9" transform="translate(-503.0002,145)" style="display:inline"><path id="path10610-8-9" d="m 506.0002,-130.5 a 1.5,1.5 0 0 1 -1.5,1.5 1.5,1.5 0 0 1 -1.5,-1.5 1.5,1.5 0 0 1 1.5,-1.5 1.5,1.5 0 0 1 1.5,1.5 z" style="fill:#bebebe;fill-opacity:1;stroke:none"/><path id="path10610-8-4-9" d="m 506.0002,-142.5 a 1.5,1.5 0 0 1 -1.5,1.5 1.5,1.5 0 0 1 -1.5,-1.5 1.5,1.5 0 0 1 1.5,-1.5 1.5,1.5 0 0 1 1.5,1.5 z" style="opacity:.3;fill:#bebebe;fill-opacity:1;stroke:none"/><path id="path10610-8-8-1" d="m 510.0002,-142.5 a 1.5,1.5 0 0 1 -1.5,1.5 1.5,1.5 0 0 1 -1.5,-1.5 1.5,1.5 0 0 1 1.5,-1.5 1.5,1.5 0 0 1 1.5,1.5 z" style="opacity:.3;fill:#bebebe;fill-opacity:1;stroke:none"/><path id="path10610-8-4-5-3" d="m 514.0002,-130.5 a 1.5,1.5 0 0 1 -1.5,1.5 1.5,1.5 0 0 1 -1.5,-1.5 1.5,1.5 0 0 1 1.5,-1.5 1.5,1.5 0 0 1 1.5,1.5 z" style="fill:#bebebe;fill-opacity:1;stroke:none"/><path id="path10610-8-1-2" d="m 506.0002,-134.5 a 1.5,1.5 0 0 1 -1.5,1.5 1.5,1.5 0 0 1 -1.5,-1.5 1.5,1.5 0 0 1 1.5,-1.5 1.5,1.5 0 0 1 1.5,1.5 z" style="opacity:.3;fill:#bebebe;fill-opacity:1;stroke:none"/><path id="path10610-8-4-0-4" d="m 510.0002,-134.5 a 1.5,1.5 0 0 1 -1.5,1.5 1.5,1.5 0 0 1 -1.5,-1.5 1.5,1.5 0 0 1 1.5,-1.5 1.5,1.5 0 0 1 1.5,1.5 z" style="fill:#bebebe;fill-opacity:1;stroke:none"/><path id="path10610-8-4-5-5-0" d="m 518.0002,-130.5 a 1.5,1.5 0 0 1 -1.5,1.5 1.5,1.5 0 0 1 -1.5,-1.5 1.5,1.5 0 0 1 1.5,-1.5 1.5,1.5 0 0 1 1.5,1.5 z" style="opacity:.3;fill:#bebebe;fill-opacity:1;stroke:none"/><path id="path10610-8-8-6-1-4" d="m 514.0002,-138.5 a 1.5,1.5 0 0 1 -1.5,1.5 1.5,1.5 0 0 1 -1.5,-1.5 1.5,1.5 0 0 1 1.5,-1.5 1.5,1.5 0 0 1 1.5,1.5 z" style="fill:#bebebe;fill-opacity:1;stroke:none"/><path id="path10610-8-4-5-5-6-0" d="m 518.0002,-134.5 a 1.5,1.5 0 0 1 -1.5,1.5 1.5,1.5 0 0 1 -1.5,-1.5 1.5,1.5 0 0 1 1.5,-1.5 1.5,1.5 0 0 1 1.5,1.5 z" style="opacity:.3;fill:#bebebe;fill-opacity:1;stroke:none"/><path id="path10610-8-4-5-5-6-2-1" d="m 518.0002,-142.5 a 1.5,1.5 0 0 1 -1.5,1.5 1.5,1.5 0 0 1 -1.5,-1.5 1.5,1.5 0 0 1 1.5,-1.5 1.5,1.5 0 0 1 1.5,1.5 z" style="fill:#bebebe;fill-opacity:1;stroke:none"/><path id="path10610-8-8-9" d="m 510.0002,-138.5 a 1.5,1.5 0 0 1 -1.5,1.5 1.5,1.5 0 0 1 -1.5,-1.5 1.5,1.5 0 0 1 1.5,-1.5 1.5,1.5 0 0 1 1.5,1.5 z" style="display:inline;opacity:.3;fill:#bebebe;fill-opacity:1;stroke:none"/></g></svg>